<mxfile host="app.diagrams.net" modified="2022-03-02T01:42:32.062Z" agent="5.0 (Windows NT 10.0; Win64; x64) AppleWebKit/537.36 (KHTML, like Gecko) Chrome/98.0.4758.102 Safari/537.36" etag="UKyB-qNiQrEJ5jXbHL8o" version="16.1.0" type="github">
  <diagram name="Page-1" id="e7e014a7-5840-1c2e-5031-d8a46d1fe8dd">
    <mxGraphModel dx="1038" dy="547" grid="1" gridSize="10" guides="1" tooltips="1" connect="1" arrows="1" fold="1" page="1" pageScale="1" pageWidth="1169" pageHeight="826" background="none" math="0" shadow="0">
      <root>
        <mxCell id="0" />
        <mxCell id="1" parent="0" />
        <mxCell id="2" value="预算单位" style="swimlane;whiteSpace=wrap" parent="1" vertex="1">
          <mxGeometry x="115" y="150" width="365" height="570" as="geometry" />
        </mxCell>
        <mxCell id="vHbWTf1daxH9Ib6W9MS0-43" style="edgeStyle=orthogonalEdgeStyle;rounded=0;orthogonalLoop=1;jettySize=auto;html=1;exitX=0.5;exitY=1;exitDx=0;exitDy=0;entryX=0.5;entryY=0;entryDx=0;entryDy=0;" edge="1" parent="2" source="vHbWTf1daxH9Ib6W9MS0-41" target="vHbWTf1daxH9Ib6W9MS0-42">
          <mxGeometry relative="1" as="geometry" />
        </mxCell>
        <mxCell id="vHbWTf1daxH9Ib6W9MS0-41" value="单位信息录入&#xa;" style="" vertex="1" parent="2">
          <mxGeometry x="70" y="30" width="110" height="30" as="geometry" />
        </mxCell>
        <mxCell id="vHbWTf1daxH9Ib6W9MS0-57" value="" style="edgeStyle=orthogonalEdgeStyle;rounded=0;orthogonalLoop=1;jettySize=auto;html=1;strokeColor=#EA6B66;" edge="1" parent="2" source="vHbWTf1daxH9Ib6W9MS0-42" target="vHbWTf1daxH9Ib6W9MS0-56">
          <mxGeometry relative="1" as="geometry" />
        </mxCell>
        <mxCell id="vHbWTf1daxH9Ib6W9MS0-42" value="人员信息录入&#xa;" style="" vertex="1" parent="2">
          <mxGeometry x="70" y="80" width="110" height="30" as="geometry" />
        </mxCell>
        <mxCell id="vHbWTf1daxH9Ib6W9MS0-62" value="" style="edgeStyle=orthogonalEdgeStyle;rounded=0;orthogonalLoop=1;jettySize=auto;html=1;strokeColor=#EA6B66;" edge="1" parent="2" source="vHbWTf1daxH9Ib6W9MS0-56" target="vHbWTf1daxH9Ib6W9MS0-61">
          <mxGeometry relative="1" as="geometry" />
        </mxCell>
        <mxCell id="vHbWTf1daxH9Ib6W9MS0-56" value="提交审批流程" style="whiteSpace=wrap;html=1;fillColor=rgb(255, 255, 255);strokeColor=rgb(0, 0, 0);fontColor=rgb(0, 0, 0);" vertex="1" parent="2">
          <mxGeometry x="65" y="171.5" width="120" height="35" as="geometry" />
        </mxCell>
        <mxCell id="vHbWTf1daxH9Ib6W9MS0-61" value="" style="shape=singleArrow;whiteSpace=wrap;html=1;arrowWidth=0.4;arrowSize=0.4;fillColor=rgb(255, 255, 255);strokeColor=rgb(0, 0, 0);fontColor=rgb(0, 0, 0);" vertex="1" parent="2">
          <mxGeometry x="265" y="159" width="80" height="60" as="geometry" />
        </mxCell>
        <mxCell id="3" value="主管部门" style="swimlane;whiteSpace=wrap" parent="1" vertex="1">
          <mxGeometry x="460" y="150" width="320.5" height="570" as="geometry" />
        </mxCell>
        <mxCell id="vHbWTf1daxH9Ib6W9MS0-50" value="" style="edgeStyle=orthogonalEdgeStyle;rounded=0;orthogonalLoop=1;jettySize=auto;html=1;strokeColor=#EA6B66;" edge="1" parent="3" source="vHbWTf1daxH9Ib6W9MS0-44" target="vHbWTf1daxH9Ib6W9MS0-49">
          <mxGeometry relative="1" as="geometry" />
        </mxCell>
        <mxCell id="vHbWTf1daxH9Ib6W9MS0-44" value="预算单位审核岗" style="" vertex="1" parent="3">
          <mxGeometry x="60.5" y="52" width="110" height="38" as="geometry" />
        </mxCell>
        <mxCell id="vHbWTf1daxH9Ib6W9MS0-45" value="可编辑" style="shape=note;whiteSpace=wrap;html=1;backgroundOutline=1;darkOpacity=0.05;" vertex="1" parent="3">
          <mxGeometry x="200" y="80" width="64.5" height="48" as="geometry" />
        </mxCell>
        <mxCell id="vHbWTf1daxH9Ib6W9MS0-46" value="" style="endArrow=none;dashed=1;html=1;dashPattern=1 3;strokeWidth=2;rounded=0;exitX=0;exitY=0.5;exitDx=0;exitDy=0;exitPerimeter=0;strokeColor=#EA6B66;entryX=0.994;entryY=0.447;entryDx=0;entryDy=0;entryPerimeter=0;" edge="1" parent="3" source="vHbWTf1daxH9Ib6W9MS0-45" target="vHbWTf1daxH9Ib6W9MS0-44">
          <mxGeometry width="50" height="50" relative="1" as="geometry">
            <mxPoint x="-60" y="320" as="sourcePoint" />
            <mxPoint x="170" y="80" as="targetPoint" />
          </mxGeometry>
        </mxCell>
        <mxCell id="vHbWTf1daxH9Ib6W9MS0-52" value="" style="edgeStyle=orthogonalEdgeStyle;rounded=0;orthogonalLoop=1;jettySize=auto;html=1;strokeColor=#EA6B66;" edge="1" parent="3" source="vHbWTf1daxH9Ib6W9MS0-49" target="vHbWTf1daxH9Ib6W9MS0-51">
          <mxGeometry relative="1" as="geometry" />
        </mxCell>
        <mxCell id="vHbWTf1daxH9Ib6W9MS0-53" value="统一" style="edgeLabel;html=1;align=center;verticalAlign=middle;resizable=0;points=[];" vertex="1" connectable="0" parent="vHbWTf1daxH9Ib6W9MS0-52">
          <mxGeometry x="-0.6917" y="3" relative="1" as="geometry">
            <mxPoint x="1" as="offset" />
          </mxGeometry>
        </mxCell>
        <mxCell id="vHbWTf1daxH9Ib6W9MS0-54" value="" style="edgeStyle=orthogonalEdgeStyle;rounded=0;orthogonalLoop=1;jettySize=auto;html=1;strokeColor=#EA6B66;" edge="1" parent="3" source="vHbWTf1daxH9Ib6W9MS0-49" target="vHbWTf1daxH9Ib6W9MS0-51">
          <mxGeometry relative="1" as="geometry" />
        </mxCell>
        <mxCell id="vHbWTf1daxH9Ib6W9MS0-55" value="同意" style="edgeLabel;html=1;align=center;verticalAlign=middle;resizable=0;points=[];" vertex="1" connectable="0" parent="vHbWTf1daxH9Ib6W9MS0-54">
          <mxGeometry x="-0.675" y="1" relative="1" as="geometry">
            <mxPoint x="1" as="offset" />
          </mxGeometry>
        </mxCell>
        <mxCell id="vHbWTf1daxH9Ib6W9MS0-49" value="审核" style="rhombus;whiteSpace=wrap;html=1;fillColor=rgb(255, 255, 255);strokeColor=rgb(0, 0, 0);fontColor=rgb(0, 0, 0);" vertex="1" parent="3">
          <mxGeometry x="75.5" y="149" width="80" height="80" as="geometry" />
        </mxCell>
        <mxCell id="vHbWTf1daxH9Ib6W9MS0-51" value="" style="whiteSpace=wrap;html=1;fillColor=rgb(255, 255, 255);strokeColor=rgb(0, 0, 0);fontColor=rgb(0, 0, 0);" vertex="1" parent="3">
          <mxGeometry x="200.5" y="159" width="120" height="60" as="geometry" />
        </mxCell>
        <mxCell id="4" value="业务科室" style="swimlane;whiteSpace=wrap;startSize=23;" parent="1" vertex="1">
          <mxGeometry x="780.5" y="150" width="280" height="570" as="geometry" />
        </mxCell>
        <mxCell id="38" value="" style="ellipse;shape=endState;fillColor=#000000;strokeColor=#ff0000" parent="4" vertex="1">
          <mxGeometry x="130" y="500" width="30" height="30" as="geometry" />
        </mxCell>
        <mxCell id="39" value="" style="endArrow=open;strokeColor=#FF0000;endFill=1;rounded=0" parent="4" target="38" edge="1">
          <mxGeometry relative="1" as="geometry">
            <mxPoint x="145" y="455" as="sourcePoint" />
          </mxGeometry>
        </mxCell>
        <mxCell id="vHbWTf1daxH9Ib6W9MS0-63" style="edgeStyle=orthogonalEdgeStyle;rounded=0;orthogonalLoop=1;jettySize=auto;html=1;exitX=0;exitY=0.5;exitDx=0;exitDy=0;entryX=0.991;entryY=0.54;entryDx=0;entryDy=0;entryPerimeter=0;strokeColor=#EA6B66;" edge="1" parent="1" source="vHbWTf1daxH9Ib6W9MS0-49" target="vHbWTf1daxH9Ib6W9MS0-42">
          <mxGeometry relative="1" as="geometry">
            <Array as="points">
              <mxPoint x="536" y="246" />
            </Array>
          </mxGeometry>
        </mxCell>
        <mxCell id="vHbWTf1daxH9Ib6W9MS0-64" value="驳回" style="edgeLabel;html=1;align=center;verticalAlign=middle;resizable=0;points=[];" vertex="1" connectable="0" parent="vHbWTf1daxH9Ib6W9MS0-63">
          <mxGeometry x="0.4125" y="-5" relative="1" as="geometry">
            <mxPoint as="offset" />
          </mxGeometry>
        </mxCell>
      </root>
    </mxGraphModel>
  </diagram>
</mxfile>
